<svg version="1.1" id="Layer_1" xmlns="http://www.w3.org/2000/svg" xmlns:xlink="http://www.w3.org/1999/xlink" x="0px" y="0px"
	 width="100%" viewBox="0 0 812 161" enable-background="new 0 0 812 161" xml:space="preserve">

<path fill="#5D1CB1" opacity="1.000000" stroke="none" 
	d="
M327.366516,69.837326 
	C331.623779,84.705040 332.144196,98.970764 322.949799,111.969879 
	C317.261627,120.011856 309.242889,124.444870 299.327240,124.970871 
	C290.407043,125.444077 281.471405,125.618568 272.546936,126.021393 
	C268.485107,126.204735 266.940887,124.399033 266.957275,120.387352 
	C267.047150,98.388626 267.044525,76.389160 266.950989,54.390469 
	C266.937531,51.222992 267.865173,49.894634 271.213959,49.945786 
	C281.211212,50.098480 291.285217,49.242367 301.193268,50.194687 
	C313.322723,51.360516 322.308899,57.942375 327.366516,69.837326 
M281.000000,96.496552 
	C281.000000,101.579407 281.000000,106.662262 281.000000,112.131805 
	C292.041748,111.143646 304.068298,115.498917 310.986115,103.522011 
	C317.365570,92.477203 317.493774,80.595039 310.304352,70.170921 
	C303.159668,59.811714 291.511932,63.468567 281.000000,63.058922 
	C281.000000,74.265266 281.000000,84.881691 281.000000,96.496552 
z"/>
<path fill="#5D1CB1" opacity="1.000000" stroke="none" 
	d="
M435.222870,125.999985 
	C428.761871,125.590561 427.636536,123.376190 430.947754,118.322487 
	C437.184296,108.804092 443.556946,99.371956 449.596436,89.730713 
	C450.437592,88.387886 450.428864,85.619545 449.593170,84.262871 
	C443.713257,74.717407 437.434906,65.417953 431.503265,55.903122 
	C430.644409,54.525452 430.453918,52.264156 430.925781,50.706001 
	C431.191956,49.827007 433.396790,49.302185 434.806641,49.042206 
	C441.368591,47.832146 445.888458,49.909672 449.063629,56.318012 
	C452.189636,62.627159 456.637177,68.281509 460.790100,74.661308 
	C466.106049,66.812149 471.010437,59.585609 475.897644,52.347477 
	C477.911835,49.364368 487.419952,47.398998 490.006744,49.645699 
	C492.391998,51.717319 491.932587,53.934036 490.133942,56.434708 
	C483.765045,65.289421 477.632690,74.313911 471.313721,83.205132 
	C469.678986,85.505287 469.656738,87.397141 471.273621,89.769096 
	C478.052887,99.714340 484.692719,109.754913 491.346405,119.785271 
	C493.672852,123.292381 492.229462,125.371254 488.054932,126.095177 
	C480.911194,127.334000 476.426971,124.578568 472.992981,118.436272 
	C469.278412,111.792152 464.909668,105.513786 460.584961,98.695442 
	C455.697754,106.086876 450.609161,112.855743 446.580688,120.205658 
	C443.951385,125.002808 440.821136,126.913101 435.222870,125.999985 
z"/>
<path fill="#5D1CB1" opacity="1.000000" stroke="none" 
	d="
M379.770996,117.581161 
	C372.370941,127.850906 352.526398,128.654068 344.071533,122.152298 
	C338.464264,117.840324 335.130920,112.208687 334.267700,105.855896 
	C332.868164,95.556061 332.490173,84.746536 340.126038,76.297592 
	C343.207581,72.887917 347.699127,70.081078 352.087433,68.643501 
	C368.534576,63.255550 382.964813,73.302780 383.972717,90.350838 
	C384.169373,93.677231 384.001007,97.025200 384.001007,100.801422 
	C372.108307,100.801422 360.354889,100.801422 348.670319,100.801422 
	C347.916473,106.025162 351.311798,111.643234 356.028290,113.517731 
	C360.264069,115.201157 365.459625,113.395805 368.351105,109.235786 
	C370.420135,106.259018 378.990112,104.462639 381.923584,106.652763 
	C382.715576,107.244064 383.213501,109.089386 382.925903,110.096176 
	C382.220703,112.565216 380.979004,114.881027 379.770996,117.581161 
M352.051178,82.432220 
	C350.871033,84.355515 349.690857,86.278809 348.267578,88.598312 
	C356.226318,88.598312 363.030243,88.598312 369.887604,88.598312 
	C368.250610,79.492287 359.562653,77.841545 352.051178,82.432220 
z"/>
<path fill="#5D1CB1" opacity="1.000000" stroke="none" 
	d="
M402.282593,86.646233 
	C404.395508,92.829292 406.296722,98.664589 408.323151,104.884232 
	C412.300385,93.606636 416.144531,82.737885 419.963074,71.860138 
	C421.177490,68.400597 427.180511,66.245972 431.317352,68.227242 
	C435.038391,70.009369 434.223877,73.027863 433.001740,76.254173 
	C427.264954,91.398277 421.493225,106.535866 416.214752,121.841583 
	C415.053528,125.208763 413.740509,126.108582 410.476898,126.064163 
	C400.985626,125.934975 401.030273,126.036079 398.055634,117.246254 
	C393.332184,103.288589 388.507355,89.365204 383.792938,75.404495 
	C381.945007,69.932129 383.334320,68.054085 389.031677,68.003731 
	C391.514252,67.981789 393.997162,68.000038 396.677094,68.000038 
	C398.513763,74.230957 400.292328,80.264709 402.282593,86.646233 
z"/>
<path fill="#7549D0" opacity="1.000000" stroke="none" 
	d="
M523.189697,115.051453 
	C528.529297,118.006096 533.873291,118.164474 538.649048,115.547127 
	C542.965576,113.181450 544.696289,108.765762 543.713806,103.147423 
	C539.735779,103.147423 535.661987,103.147423 531.304138,103.147423 
	C531.304138,100.918343 531.304138,99.203796 531.304138,97.243225 
	C537.722229,97.243225 543.988892,97.243225 550.629272,97.243225 
	C550.629272,105.282494 550.629272,113.335884 550.629272,122.735825 
	C548.136230,121.567810 546.119629,120.622993 543.591003,119.438309 
	C535.682373,126.609138 517.129700,124.185097 511.968872,113.500076 
	C505.957642,101.054405 507.388885,79.806786 523.927429,75.800934 
	C535.804871,72.924080 548.659668,74.487663 551.789124,89.646500 
	C547.883545,90.362984 544.994873,90.517609 542.707642,85.809517 
	C540.143066,80.530777 534.333801,80.781021 529.109619,80.992775 
	C523.476929,81.221077 520.221436,84.639488 517.925903,89.295021 
	C514.086060,97.082657 516.201721,110.050606 523.189697,115.051453 
z"/>
<path fill="#7549D0" opacity="1.000000" stroke="none" 
	d="
M651.000000,93.175400 
	C651.070801,91.235680 651.141602,89.773567 651.251587,87.502586 
	C653.964233,88.186356 656.236877,88.759209 658.563232,89.345604 
	C661.854675,88.634888 665.614563,87.303215 669.431824,87.111290 
	C676.515930,86.755096 681.783997,91.071419 682.838440,98.205681 
	C683.436401,102.251213 683.502502,106.633270 682.608643,110.592941 
	C679.943542,122.398270 669.946411,126.355225 657.867065,120.538422 
	C657.867065,125.298103 657.867065,129.904907 657.867065,134.747284 
	C655.608826,134.747284 653.671448,134.747284 651.000000,134.747284 
	C651.000000,121.102867 651.000000,107.377937 651.000000,93.175400 
M673.542175,95.086823 
	C665.222717,89.956108 660.068237,91.857384 658.009277,101.192841 
	C657.379761,104.047188 657.701294,107.204147 658.067810,110.163017 
	C658.588257,114.364174 661.419128,116.993584 665.409546,117.619400 
	C669.128723,118.202682 672.460938,116.629921 674.273254,113.136658 
	C677.275574,107.349480 676.849915,101.504868 673.542175,95.086823 
z"/>
<path fill="#7549D0" opacity="1.000000" stroke="none" 
	d="
M577.038086,99.344406 
	C581.213196,88.189003 589.637939,84.305573 600.583557,87.990005 
	C605.405945,89.613304 608.169861,93.140831 609.255554,97.797852 
	C611.586060,107.794846 609.565186,119.175308 600.237976,121.978203 
	C593.910522,123.879646 587.477844,124.339729 582.099731,119.530098 
	C576.608521,114.619293 575.498352,108.242294 576.973267,101.249252 
	C577.074341,100.770096 577.002075,100.254372 577.038086,99.344406 
M602.789124,110.610825 
	C602.858765,107.630821 603.063965,104.646385 602.966858,101.671822 
	C602.812988,96.954338 599.680725,93.543556 595.794739,92.714859 
	C592.874573,92.092133 588.802795,93.765068 586.222961,95.712929 
	C584.422302,97.072449 584.112488,100.581940 583.427734,103.207016 
	C582.065308,108.430000 585.503479,114.983315 590.556213,117.142906 
	C595.198608,119.127106 598.462830,117.483406 602.789124,110.610825 
z"/>
<path fill="#7549D0" opacity="1.000000" stroke="none" 
	d="
M616.184021,118.372581 
	C615.537170,108.266144 615.026428,98.545547 614.493347,88.398849 
	C617.246704,88.398849 619.293640,88.398849 622.000000,88.398849 
	C622.000000,95.192230 621.995483,102.123581 622.001526,109.054916 
	C622.006042,114.259361 624.956116,117.932785 629.068420,117.874603 
	C633.237183,117.815613 636.901184,113.802719 636.973999,108.926346 
	C637.075378,102.137268 636.999451,95.345535 636.999451,88.281769 
	C639.335205,88.281769 641.267639,88.281769 643.601562,88.281769 
	C643.601562,99.202515 643.601562,110.246109 643.601562,122.168182 
	C641.297729,121.730576 639.029846,121.299797 636.041626,120.732193 
	C629.769165,124.862518 621.790405,124.316734 616.184021,118.372581 
z"/>
<path fill="#BA55DA" opacity="1.000000" stroke="none" 
	d="
M154.948212,59.832649 
	C163.018494,56.223621 171.088776,52.614597 179.853302,48.956017 
	C180.691956,48.578590 180.836380,48.250725 180.980804,47.922859 
	C180.980789,47.922855 180.993942,47.990692 181.361115,48.160255 
	C191.607559,46.304134 201.452942,43.861839 211.662949,45.878044 
	C215.130188,46.562725 218.596283,47.253086 222.062912,47.940857 
	C222.062912,47.940857 222.000000,47.998760 221.853729,48.258553 
	C222.100998,48.709099 222.494507,48.899849 222.888031,49.090599 
	C225.851135,51.138569 228.814224,53.186535 231.716843,55.827599 
	C227.746201,55.948441 223.835724,55.170029 219.926041,55.173843 
	C218.599274,55.175137 217.274460,57.150688 215.549133,58.163162 
	C208.449921,57.728806 201.740326,56.956104 195.054260,57.123455 
	C190.657959,57.233494 186.295593,58.699505 181.935822,59.102074 
	C181.219498,57.776867 180.631073,56.366009 179.728546,56.123314 
	C171.360474,53.873077 163.901352,56.226398 156.685364,60.986042 
	C155.894119,60.581944 155.421173,60.207298 154.948212,59.832649 
z"/>
<path fill="#2E23A8" opacity="1.000000" stroke="none" 
	d="
M226.135773,125.046684 
	C220.070404,129.862183 212.756699,131.028519 205.416962,131.973923 
	C202.958725,132.290558 200.424042,132.013702 197.375549,131.566467 
	C191.193985,129.521927 185.561172,127.919037 179.846619,126.034027 
	C179.173843,125.842155 178.582809,125.932404 177.668869,126.006607 
	C176.560440,125.649956 175.774948,125.309357 174.924698,124.610428 
	C173.555115,123.856842 172.250290,123.461586 170.929596,123.093689 
	C170.913727,123.121056 170.858765,123.152351 170.944473,122.754181 
	C172.776138,121.570549 174.454102,120.509666 176.282547,120.058426 
	C179.811768,119.187439 183.425949,118.660637 187.409668,118.036377 
	C198.291580,120.507446 208.710434,121.347755 219.230621,117.152039 
	C222.144196,118.633217 224.763336,119.899590 227.269424,121.111305 
	C226.943726,122.241951 226.539749,123.644318 226.135773,125.046684 
z"/>
<path fill="#2E23A8" opacity="1.000000" stroke="none" 
	d="
M115.851791,49.073002 
	C118.473953,50.128220 121.096107,51.183437 123.711563,52.899609 
	C122.715591,54.053825 121.774384,54.722599 120.728470,55.009041 
	C116.837433,56.074673 112.911995,57.014637 108.587997,57.993370 
	C97.355545,55.265675 86.627220,55.052097 75.876801,58.809868 
	C71.833794,57.190170 67.973152,55.933182 64.112511,54.676193 
	C66.829414,52.858093 69.546310,51.039993 72.856750,49.017303 
	C73.626778,48.511242 73.803253,48.209759 73.979736,47.908279 
	C73.979736,47.908279 73.984665,47.982208 74.368019,48.021679 
	C82.446770,47.366238 90.149651,46.072277 97.835167,46.168262 
	C103.851868,46.243404 109.847046,48.040806 115.851791,49.073002 
z"/>
<path fill="#291863" opacity="1.000000" stroke="none" 
	d="
M181.918030,59.558296 
	C186.295593,58.699505 190.657959,57.233494 195.054260,57.123455 
	C201.740326,56.956104 208.449921,57.728806 215.777740,58.399208 
	C219.284683,60.456882 222.163376,62.217602 225.193207,64.270874 
	C227.502258,67.079971 229.660172,69.596519 231.889038,72.437683 
	C232.818344,74.273293 233.676727,75.784286 234.560532,77.641853 
	C234.609848,78.679359 234.633728,79.370308 234.469437,80.245377 
	C229.847351,79.954887 225.413452,79.480270 220.989746,79.001404 
	C220.999939,78.997162 220.995239,79.018333 220.978241,78.714272 
	C220.630066,77.938934 220.298889,77.467667 219.660248,76.995033 
	C218.942856,76.988289 218.532944,76.982910 218.123016,76.977524 
	C218.123016,76.977524 217.981720,76.584793 217.900269,76.136787 
	C217.679596,75.367523 217.449387,75.137154 217.128220,74.997681 
	C209.509949,65.881096 200.003662,61.045776 187.891388,61.992050 
	C185.928741,62.145382 183.940262,61.968269 181.465393,61.633621 
	C181.284042,60.734997 181.601044,60.146645 181.918030,59.558296 
z"/>
<path fill="#6147C3" opacity="1.000000" stroke="none" 
	d="
M765.439514,89.003281 
	C770.980530,88.967949 776.403687,88.098862 779.771545,93.350990 
	C780.917664,95.138336 781.571777,97.241188 782.616577,99.569763 
	C778.678223,100.173172 776.333923,100.462799 774.219421,96.996559 
	C771.182617,92.018303 764.633911,92.872513 761.315613,98.401329 
	C758.227661,103.546379 758.087708,108.986771 761.107422,114.269165 
	C763.754517,118.899742 769.572571,119.589630 773.125305,115.138168 
	C775.635315,111.993225 778.174683,111.480179 781.587280,112.301819 
	C779.456909,121.051926 773.829285,124.531578 763.750793,122.935150 
	C758.311279,122.073517 752.609314,116.808754 752.899597,109.102692 
	C753.131897,102.934494 752.469543,96.646690 758.174927,92.420609 
	C760.188599,90.929054 762.710938,90.124199 765.439514,89.003281 
z"/>
<path fill="#291863" opacity="1.000000" stroke="none" 
	d="
M76.043686,97.827118 
	C78.696678,102.878975 81.665321,107.633575 87.809860,110.190910 
	C88.525970,110.773865 88.821152,110.910713 89.156670,110.960564 
	C89.156670,110.960564 89.594795,110.989151 89.935692,111.270538 
	C90.531090,111.774452 90.825546,111.910515 91.159973,111.960114 
	C91.159973,111.960114 91.593948,111.988510 91.884094,112.434494 
	C94.926537,113.588699 97.644508,114.518829 100.439468,114.951317 
	C104.290710,115.547249 108.200111,115.767258 112.068893,116.357185 
	C112.053192,116.566063 111.985001,116.979401 111.593887,116.998680 
	C100.555870,120.002426 89.876778,121.786507 78.818893,117.629700 
	C75.751289,115.858162 72.909882,114.337234 69.934448,112.528847 
	C68.562584,110.814095 67.324738,109.386803 65.956299,107.653656 
	C64.616974,105.523605 63.408253,103.699402 62.156662,101.475128 
	C61.949650,100.015373 61.785503,98.955688 62.105843,97.928757 
	C64.679794,98.021156 66.770058,98.147690 68.858521,98.122833 
	C71.254410,98.094315 73.648697,97.931557 76.043686,97.827118 
z"/>
<path fill="#7549D0" opacity="1.000000" stroke="none" 
	d="
M558.000000,94.131813 
	C558.000000,92.003761 558.000000,90.355309 558.000000,87.613228 
	C560.825806,88.294174 563.145081,88.853058 566.448792,89.649155 
	C568.410400,88.921219 571.773682,87.673103 575.299683,86.364616 
	C576.746948,91.098701 575.889282,93.143074 571.609741,94.359924 
	C567.201416,95.613380 564.763184,99.098747 564.950378,104.147560 
	C565.164490,109.923141 565.000000,115.712769 565.000000,121.741623 
	C562.619812,121.741623 560.685181,121.741623 558.000000,121.741623 
	C558.000000,112.763458 558.000000,103.687431 558.000000,94.131813 
z"/>
<path fill="#6147C3" opacity="1.000000" stroke="none" 
	d="
M719.656433,122.999390 
	C713.383118,122.999886 707.578308,122.999886 701.707947,122.999886 
	C701.707947,111.707581 701.707947,100.612541 701.707947,89.260468 
	C704.131287,89.260468 705.847229,89.260468 707.500122,89.260468 
	C707.500122,98.817238 707.500122,108.138687 707.500122,117.938843 
	C712.779480,117.938843 718.191833,117.938843 723.541443,117.938843 
	C724.544067,121.536621 723.543030,123.180046 719.656433,122.999390 
z"/>
<path fill="#6147C3" opacity="1.000000" stroke="none" 
	d="
M734.998779,92.244141 
	C734.999878,100.930389 734.999878,109.139687 734.999878,117.853012 
	C739.663513,117.853012 745.065186,117.853012 750.682190,117.853012 
	C751.167358,120.816017 751.310303,122.982101 747.774231,122.989662 
	C741.342468,123.003418 734.910767,122.993561 728.675415,122.993561 
	C728.675415,111.545006 728.675415,100.568138 728.675415,88.942375 
	C731.464172,89.716774 734.754578,86.788109 734.998779,92.244141 
z"/>
<path fill="#673CDE" opacity="1.000000" stroke="none" 
	d="
M76.059158,59.172577 
	C86.627220,55.052097 97.355545,55.265675 108.585312,58.301025 
	C109.007919,59.027054 109.021744,59.437027 109.035576,59.847000 
	C100.585861,59.901562 92.786613,62.062778 85.237503,67.122253 
	C84.431442,67.528595 84.234528,67.819664 84.037613,68.110733 
	C84.037613,68.110733 84.031593,68.030075 83.823471,68.133240 
	C83.423836,68.527687 83.232323,68.818985 83.040817,69.110275 
	C83.040817,69.110275 83.036713,69.023781 82.678932,68.980408 
	C79.706886,68.291252 77.100967,67.608727 74.475502,67.012245 
	C72.640343,66.595322 70.778450,66.296074 69.088387,65.650162 
	C71.518570,63.294895 73.788864,61.233734 76.059158,59.172577 
z"/>
<path fill="#3728AE" opacity="1.000000" stroke="none" 
	d="
M109.444862,59.901779 
	C109.021744,59.437027 109.007919,59.027054 108.996780,58.309429 
	C112.911995,57.014637 116.837433,56.074673 120.728470,55.009041 
	C121.774384,54.722599 122.715591,54.053825 123.880692,53.222881 
	C130.027222,55.268570 135.997910,57.651936 142.800919,60.367538 
	C135.087509,64.735420 128.139786,66.340904 120.433243,63.141941 
	C117.049217,61.737244 113.388977,60.997974 109.444862,59.901779 
z"/>
<path fill="#A650D5" opacity="1.000000" stroke="none" 
	d="
M111.985001,116.979401 
	C111.985001,116.979401 112.053192,116.566063 112.443130,116.315552 
	C115.914169,115.024918 118.995262,113.984795 122.076355,112.944664 
	C124.112770,111.933899 126.149193,110.923126 128.567383,110.280533 
	C129.811371,111.758102 130.525620,113.652382 131.560211,113.847412 
	C137.531799,114.973145 143.257935,114.375565 148.315887,109.842949 
	C151.091721,109.081482 153.553558,108.453682 156.015381,107.825890 
	C148.965393,111.912666 141.915405,115.999435 134.202484,120.136200 
	C133.075119,120.512817 132.610657,120.839432 132.146210,121.166046 
	C132.009827,121.487518 131.782883,121.720978 130.949738,121.598907 
	C128.956207,121.222519 127.478355,121.113640 125.621674,120.837440 
	C122.194794,120.445702 119.085220,120.509384 116.124191,119.877266 
	C114.607376,119.553459 113.356216,117.985229 111.985001,116.979401 
z"/>
<path fill="#693CE1" opacity="1.000000" stroke="none" 
	d="
M218.936203,116.937233 
	C208.710434,121.347755 198.291580,120.507446 187.434387,117.830643 
	C187.054352,117.579681 187.086487,117.166321 187.522552,117.129486 
	C191.640915,116.447258 195.323181,115.801857 199.005463,115.156448 
	C203.112183,112.831367 207.218903,110.506294 211.790680,108.381577 
	C213.513046,109.388031 214.705444,110.729469 216.040848,110.891388 
	C219.038208,111.254837 222.106598,111.032433 225.062286,111.376862 
	C222.964401,113.449196 220.950302,115.193214 218.936203,116.937233 
z"/>
<path fill="#3828B0" opacity="1.000000" stroke="none" 
	d="
M187.086487,117.166321 
	C187.086487,117.166321 187.054352,117.579681 187.029633,117.785416 
	C183.425949,118.660637 179.811768,119.187439 176.282547,120.058426 
	C174.454102,120.509666 172.776138,121.570549 170.581268,122.722610 
	C168.046219,122.402420 165.960052,121.715637 163.873901,121.028854 
	C160.591202,119.256012 157.308502,117.483162 154.426193,115.349045 
	C155.553040,114.620239 156.279495,114.252686 157.005966,113.885147 
	C157.005966,113.885147 156.988007,113.982033 157.374619,113.992256 
	C162.870361,113.653481 167.979477,113.304474 173.088608,112.955475 
	C173.088608,112.955475 173.016220,112.984207 173.186523,113.258919 
	C177.933395,114.744522 182.509933,115.955421 187.086487,117.166321 
z"/>
<path fill="#7943CA" opacity="1.000000" stroke="none" 
	d="
M173.923965,90.013214 
	C172.689804,94.799095 170.122421,98.596443 165.376312,100.809944 
	C165.006989,100.380173 165.002777,100.189514 165.138550,99.943237 
	C165.186127,99.925591 165.093674,99.963554 164.627167,100.040176 
	C163.539474,100.473282 162.850754,100.923882 162.108170,101.252937 
	C157.882050,103.125580 151.549896,100.767929 151.005325,97.141251 
	C154.426743,94.840897 157.848160,92.540550 161.933014,90.251770 
	C166.446152,93.524460 170.173798,91.258514 173.923965,90.013214 
z"/>
<path fill="#5132B8" opacity="1.000000" stroke="none" 
	d="
M219.036896,97.636612 
	C219.036896,97.636612 218.945526,97.412704 219.344055,97.235756 
	C220.477051,96.012589 221.211487,94.966377 221.978424,94.341705 
	C223.205826,95.508522 224.349854,96.773346 225.605698,96.896317 
	C228.699921,97.199310 231.845474,96.977829 235.196762,97.262192 
	C238.898010,98.707832 242.372879,99.858498 245.847778,101.009171 
	C244.894928,103.102531 243.942093,105.195892 242.562531,107.565414 
	C239.427567,103.674240 234.875961,104.854179 230.733612,103.716568 
	C226.544830,102.565926 222.644424,101.709061 218.820404,100.454918 
	C218.943481,99.250633 218.990189,98.443626 219.036896,97.636612 
z"/>
<path fill="#5333BB" opacity="1.000000" stroke="none" 
	d="
M50.162926,73.992096 
	C50.450203,73.204666 50.737480,72.417236 51.392471,71.267990 
	C52.523922,70.763206 53.522449,70.237228 54.013870,70.538483 
	C57.625584,72.752571 61.218483,73.379082 65.260696,71.281418 
	C69.973419,72.380821 74.408295,73.191147 78.843170,74.001480 
	C77.564468,76.430779 76.285767,78.860077 74.621170,81.637314 
	C73.824417,81.982414 73.413582,81.979576 73.002129,81.577011 
	C72.173996,80.028519 71.587265,78.300026 70.474556,77.837883 
	C66.899620,76.353050 63.248737,76.314262 59.578934,79.000435 
	C55.344025,79.329155 51.615082,79.564568 51.047016,74.305199 
	C51.032475,74.170570 50.469906,74.095131 50.162926,73.992096 
z"/>
<path fill="#BF59E0" opacity="1.000000" stroke="none" 
	d="
M126.000496,121.004768 
	C127.478355,121.113640 128.956207,121.222519 130.701813,121.579636 
	C124.903442,124.199524 118.837334,126.571167 112.292488,128.513092 
	C106.732674,128.158768 101.561508,127.662369 96.591934,128.445389 
	C89.378487,129.581970 82.643898,128.663574 76.290237,125.709259 
	C87.537346,125.301109 98.546776,124.491272 109.425537,125.345558 
	C115.872261,125.851807 120.680710,123.168755 126.000496,121.004768 
z"/>
<path fill="#8B49D0" opacity="1.000000" stroke="none" 
	d="
M164.998550,99.998856 
	C165.002777,100.189514 165.006989,100.380173 165.023560,100.856674 
	C162.256531,103.342072 159.477173,105.541626 156.356598,107.783531 
	C153.553558,108.453682 151.091721,109.081482 148.082855,109.553894 
	C145.849640,108.932098 144.078384,108.655022 142.501083,107.946281 
	C140.909882,107.231300 139.511139,106.087967 138.028076,105.132301 
	C142.129852,102.506119 146.231613,99.879936 150.669357,97.197495 
	C151.549896,100.767929 157.882050,103.125580 162.108170,101.252937 
	C162.850754,100.923882 163.539474,100.473282 164.626541,100.039413 
	C165.000000,100.000000 164.998550,99.998856 164.998550,99.998856 
z"/>
<path fill="#8C49D0" opacity="1.000000" stroke="none" 
	d="
M141.953461,66.893799 
	C142.416183,66.574341 142.878906,66.254875 143.830917,66.258995 
	C147.674347,67.300308 151.028503,68.018044 154.276016,68.712959 
	C154.525955,69.740379 154.804749,70.886452 155.083542,72.032532 
	C153.316269,73.273117 151.549011,74.513702 149.147736,75.902771 
	C146.877060,75.371399 145.278488,74.572792 143.596741,74.033569 
	C138.200897,72.303452 133.826584,74.255363 129.701385,78.148209 
	C127.317535,80.205757 125.234184,82.118004 123.150841,84.030251 
	C124.052429,82.216599 124.513718,79.876236 125.936890,78.686523 
	C130.484589,74.884895 135.389130,71.510162 140.792587,67.980721 
	C141.618256,67.995522 141.807220,68.000206 142.050934,68.145309 
	C142.193771,68.335007 142.281845,68.384277 142.369919,68.433548 
	C142.248199,68.287804 142.126480,68.142059 141.998444,67.720383 
	C141.979218,67.260910 141.966339,67.077362 141.953461,66.893799 
z"/>
<path fill="#A650D5" opacity="1.000000" stroke="none" 
	d="
M181.935822,59.102074 
	C181.601044,60.146645 181.284042,60.734997 181.001846,61.593052 
	C177.643677,62.915215 174.250702,63.967670 170.259857,64.793839 
	C165.442520,63.383530 161.223083,62.199512 157.003632,61.015495 
	C163.901352,56.226398 171.360474,53.873077 179.728546,56.123314 
	C180.631073,56.366009 181.219498,57.776867 181.935822,59.102074 
z"/>
<path fill="#603AC0" opacity="1.000000" stroke="none" 
	d="
M133.849564,88.027161 
	C136.394714,90.728813 138.939865,93.430466 141.531067,96.181015 
	C137.358765,101.277641 131.316589,101.706718 126.401024,96.868019 
	C125.335129,95.818794 124.293457,94.744965 123.570526,93.251366 
	C124.489113,91.069191 125.077774,89.318123 125.870705,86.959465 
	C128.449860,87.304596 131.149719,87.665878 133.849564,88.027161 
z"/>
<path fill="#9A4DD3" opacity="1.000000" stroke="none" 
	d="
M156.685364,60.986042 
	C161.223083,62.199512 165.442520,63.383530 169.885162,64.865814 
	C165.351089,67.437935 160.593811,69.711784 155.460037,72.009087 
	C154.804749,70.886452 154.525955,69.740379 154.276016,68.712959 
	C151.028503,68.018044 147.674347,67.300308 144.133591,66.226028 
	C144.026764,65.536385 144.209381,65.275185 144.870728,65.224472 
	C145.828476,64.957466 146.410324,64.551872 146.992157,64.146271 
	C149.439941,62.828484 151.887711,61.510700 154.641846,60.012787 
	C155.421173,60.207298 155.894119,60.581944 156.685364,60.986042 
z"/>
<path fill="#3828B0" opacity="1.000000" stroke="none" 
	d="
M219.230621,117.152039 
	C220.950302,115.193214 222.964401,113.449196 225.361816,111.369827 
	C226.146912,111.010605 226.548660,110.986740 227.357422,111.021515 
	C231.792191,111.721840 235.819992,112.363533 239.847778,113.005226 
	C235.512589,117.004257 231.177399,121.003288 226.488983,125.024506 
	C226.539749,123.644318 226.943726,122.241951 227.269424,121.111305 
	C224.763336,119.899590 222.144196,118.633217 219.230621,117.152039 
z"/>
<path fill="#3828B0" opacity="1.000000" stroke="none" 
	d="
M75.876801,58.809868 
	C73.788864,61.233734 71.518570,63.294895 68.838875,65.767609 
	C67.947853,66.449997 67.466225,66.720825 66.651398,66.820480 
	C63.746223,65.810989 61.174248,64.972664 58.515198,64.105957 
	C58.648720,62.840302 58.802570,61.381935 58.956421,59.923569 
	C60.502380,58.270882 62.048340,56.618195 63.853405,54.820850 
	C67.973152,55.933182 71.833794,57.190170 75.876801,58.809868 
z"/>
<path fill="#AD53D8" opacity="1.000000" stroke="none" 
	d="
M70.068474,112.816307 
	C72.909882,114.337234 75.751289,115.858162 78.791962,118.045258 
	C77.536491,119.474403 76.102547,120.280945 74.621201,120.988251 
	C73.105026,121.712189 71.542427,122.338867 69.664719,122.971237 
	C67.880402,123.651596 66.517082,118.792564 65.016640,122.868172 
	C61.711506,119.136215 58.406372,115.404266 55.451988,111.322586 
	C56.203941,110.979744 56.605145,110.986633 57.155834,111.305542 
	C62.718060,117.487770 66.043312,117.800087 70.068474,112.816307 
z"/>
<path fill="#CB5BE5" opacity="1.000000" stroke="none" 
	d="
M65.326096,123.028397 
	C66.517082,118.792564 67.880402,123.651596 69.861099,123.243202 
	C72.261147,124.370499 74.129379,125.188942 75.997620,126.007393 
	C82.643898,128.663574 89.378487,129.581970 96.591934,128.445389 
	C101.561508,127.662369 106.732674,128.158768 111.912384,128.448853 
	C102.288429,132.209900 92.107460,131.755768 82.294899,130.648071 
	C76.534508,129.997803 71.175247,125.794022 65.326096,123.028397 
z"/>
<path fill="#603AC0" opacity="1.000000" stroke="none" 
	d="
M50.093746,74.326675 
	C50.469906,74.095131 51.032475,74.170570 51.047016,74.305199 
	C51.615082,79.564568 55.344025,79.329155 59.572437,79.400551 
	C60.008598,80.867790 60.005928,81.934853 59.994888,83.400513 
	C59.981022,84.861443 59.975525,85.923790 59.946709,87.336426 
	C59.849075,88.148293 59.774757,88.609871 59.317749,89.062164 
	C56.142677,89.395416 53.350300,89.737953 50.958912,90.031303 
	C50.036743,87.402405 49.416550,85.634377 48.786736,83.432152 
	C48.856659,81.258194 48.936203,79.518433 49.015743,77.778679 
	C49.352020,76.739540 49.688293,75.700394 50.093746,74.326675 
z"/>
<path fill="#AA51D6" opacity="1.000000" stroke="none" 
	d="
M225.042084,63.978317 
	C222.163376,62.217602 219.284683,60.456882 216.177368,58.460117 
	C217.274460,57.150688 218.599274,55.175137 219.926041,55.173843 
	C223.835724,55.170029 227.746201,55.948441 231.861298,56.136173 
	C233.975693,57.636795 235.885162,59.421947 237.760193,61.777657 
	C233.237854,60.868633 229.083252,61.982212 225.042084,63.978317 
z"/>
<path fill="#673EC6" opacity="1.000000" stroke="none" 
	d="
M173.971710,89.636040 
	C170.173798,91.258514 166.446152,93.524460 162.246765,90.110855 
	C159.143829,86.693108 156.390579,83.427834 153.511963,80.013870 
	C154.211899,79.568260 155.274368,78.891853 156.674820,78.541847 
	C159.547760,84.963341 162.843155,86.069817 168.792175,82.679863 
	C168.271164,82.023956 167.699234,81.431488 167.281525,80.745163 
	C166.782883,79.925873 166.416290,79.026222 165.992493,78.161392 
	C168.318207,80.207146 170.643936,82.252899 172.661591,84.684204 
	C172.875275,85.708618 173.397018,86.347488 173.918747,86.986359 
	C173.952316,87.743858 173.985901,88.501366 173.971710,89.636040 
z"/>
<path fill="#974BD0" opacity="1.000000" stroke="none" 
	d="
M225.193207,64.270874 
	C229.083252,61.982212 233.237854,60.868633 237.905823,62.067108 
	C240.082672,64.925415 242.079437,68.064835 243.722168,71.547356 
	C239.477951,69.880638 235.597137,68.356720 231.818085,72.113068 
	C229.660172,69.596519 227.502258,67.079971 225.193207,64.270874 
z"/>
<path fill="#7341C9" opacity="1.000000" stroke="none" 
	d="
M133.983032,87.723770 
	C131.149719,87.665878 128.449860,87.304596 125.870705,86.959465 
	C125.077774,89.318123 124.489113,91.069191 123.536636,92.917229 
	C123.040436,90.250404 122.908051,87.486610 122.963257,84.376534 
	C125.234184,82.118004 127.317535,80.205757 129.886505,78.482933 
	C131.670258,79.115013 132.989441,79.979561 134.262360,79.916107 
	C137.294586,79.764946 138.359436,81.045380 137.998032,83.882362 
	C136.704193,85.061707 135.410339,86.241043 133.983032,87.723770 
z"/>
<path fill="#9A4DD3" opacity="1.000000" stroke="none" 
	d="
M137.686646,105.188370 
	C139.511139,106.087967 140.909882,107.231300 142.501083,107.946281 
	C144.078384,108.655022 145.849640,108.932098 147.768860,109.687561 
	C143.257935,114.375565 137.531799,114.973145 131.560211,113.847412 
	C130.525620,113.652382 129.811371,111.758102 128.913666,110.218643 
	C131.700516,108.273857 134.522873,106.759140 137.686646,105.188370 
z"/>
<path fill="#8045CB" opacity="1.000000" stroke="none" 
	d="
M61.621361,97.895996 
	C61.785503,98.955688 61.949650,100.015373 61.839493,101.685783 
	C58.436012,103.524696 55.306839,104.752892 52.177666,105.981079 
	C51.118252,103.594284 50.058842,101.207497 49.031906,98.067673 
	C49.156296,96.093269 49.248207,94.871902 49.716988,93.878967 
	C52.591820,99.171082 56.528915,96.518005 60.280060,96.117722 
	C60.864738,96.809898 61.243050,97.352943 61.621361,97.895996 
z"/>
<path fill="#7F44C9" opacity="1.000000" stroke="none" 
	d="
M138.342682,83.859024 
	C138.359436,81.045380 137.294586,79.764946 134.262360,79.916107 
	C132.989441,79.979561 131.670258,79.115013 130.187012,78.337631 
	C133.826584,74.255363 138.200897,72.303452 143.596741,74.033569 
	C145.278488,74.572792 146.877060,75.371399 148.849792,76.056496 
	C145.686356,78.653046 142.186844,81.244362 138.342682,83.859024 
z"/>
<path fill="#442EB5" opacity="1.000000" stroke="none" 
	d="
M58.639355,60.054131 
	C58.802570,61.381935 58.648720,62.840302 58.515198,64.105957 
	C61.174248,64.972664 63.746223,65.810989 66.517921,67.118324 
	C66.139381,68.722336 65.561111,69.857338 64.982849,70.992340 
	C61.218483,73.379082 57.625584,72.752571 54.013870,70.538483 
	C53.522449,70.237228 52.523922,70.763206 51.462250,70.948212 
	C53.550301,67.388412 55.936295,63.786552 58.639355,60.054131 
z"/>
<path fill="#442EB5" opacity="1.000000" stroke="none" 
	d="
M239.984619,112.696800 
	C235.819992,112.363533 231.792191,111.721840 227.493347,110.733261 
	C227.502029,109.594757 227.781799,108.803123 228.352966,107.863602 
	C229.436920,106.480583 230.229477,105.245461 231.022018,104.010330 
	C234.875961,104.854179 239.427567,103.674240 242.489349,107.921875 
	C241.935760,109.464249 241.028610,110.926315 239.984619,112.696800 
z"/>
<path fill="#311D77" opacity="1.000000" stroke="none" 
	d="
M62.105846,97.928757 
	C61.243050,97.352943 60.864738,96.809898 60.278915,95.703156 
	C60.030155,93.754753 59.988911,92.370049 60.361603,91.038765 
	C65.227135,91.938690 69.756561,93.740616 73.836739,90.028107 
	C74.465118,92.404610 75.093491,94.781105 75.882782,97.492363 
	C73.648697,97.931557 71.254410,98.094315 68.858521,98.122833 
	C66.770058,98.147690 64.679794,98.021156 62.105846,97.928757 
z"/>
<path fill="#6B3FC6" opacity="1.000000" stroke="none" 
	d="
M246.845154,83.041199 
	C246.881668,87.057968 246.918167,91.074738 246.521698,95.455605 
	C245.403488,94.270187 244.718246,92.720673 243.952393,90.988884 
	C241.277145,90.988884 238.653595,90.988884 235.979492,90.990303 
	C235.928955,90.991722 235.828644,90.997215 235.874298,90.570587 
	C235.950455,88.427513 235.980972,86.711052 236.381058,84.929398 
	C239.755753,82.594193 242.737625,81.606476 245.612442,84.991432 
	C246.018295,84.349350 246.431717,83.695267 246.845154,83.041199 
z"/>
<path fill="#5F37CF" opacity="1.000000" stroke="none" 
	d="
M65.260696,71.281418 
	C65.561111,69.857338 66.139381,68.722336 66.851120,67.289490 
	C67.466225,66.720825 67.947853,66.449997 68.678986,66.061722 
	C70.778450,66.296074 72.640343,66.595322 74.475502,67.012245 
	C77.100967,67.608727 79.706886,68.291252 82.712357,69.007927 
	C81.773758,70.518600 80.443970,71.958374 78.978676,73.699814 
	C74.408295,73.191147 69.973419,72.380821 65.260696,71.281418 
z"/>
<path fill="#5E3AC1" opacity="1.000000" stroke="none" 
	d="
M236.030045,90.988884 
	C238.653595,90.988884 241.277145,90.988884 243.952393,90.988884 
	C244.718246,92.720673 245.403488,94.270187 246.452179,95.913895 
	C246.542389,97.426399 246.269150,98.844704 245.921829,100.636093 
	C242.372879,99.858498 238.898010,98.707832 235.203705,96.873550 
	C235.332870,94.456261 235.681458,92.722572 236.030045,90.988884 
z"/>
<path fill="#7943CA" opacity="1.000000" stroke="none" 
	d="
M246.888962,82.629433 
	C246.431717,83.695267 246.018295,84.349350 245.612442,84.991432 
	C242.737625,81.606476 239.755753,82.594193 236.188293,84.902290 
	C235.625961,84.940384 235.237183,84.923691 235.214874,84.513824 
	C235.014267,82.756393 234.835938,81.408821 234.657608,80.061249 
	C234.633728,79.370308 234.609848,78.679359 234.961639,77.448685 
	C238.652664,75.521332 241.847107,75.130035 244.516159,78.146378 
	C245.029602,77.350235 245.456985,76.687561 245.884354,76.024879 
	C246.233826,78.089142 246.583298,80.153412 246.888962,82.629433 
z"/>
<path fill="#8848CE" opacity="1.000000" stroke="none" 
	d="
M245.927734,75.688232 
	C245.456985,76.687561 245.029602,77.350235 244.516159,78.146378 
	C241.847107,75.130035 238.652664,75.521332 234.936188,77.102127 
	C233.676727,75.784286 232.818344,74.273293 231.889038,72.437683 
	C235.597137,68.356720 239.477951,69.880638 243.760956,71.914261 
	C244.759552,73.075897 245.365326,74.213737 245.927734,75.688232 
z"/>
<path fill="#181253" opacity="1.000000" stroke="none" 
	d="
M115.815933,48.689270 
	C109.847046,48.040806 103.851868,46.243404 97.835167,46.168262 
	C90.149651,46.072277 82.446770,47.366238 74.333786,48.007526 
	C81.875053,42.930038 90.760384,43.508812 99.439255,44.360909 
	C104.962059,44.903133 110.338188,46.939278 115.815933,48.689270 
z"/>
<path fill="#904AD1" opacity="1.000000" stroke="none" 
	d="
M52.205677,106.310654 
	C55.306839,104.752892 58.436012,103.524696 61.882359,102.085846 
	C63.408253,103.699402 64.616974,105.523605 65.615669,107.802155 
	C62.605877,109.168846 59.806114,110.081184 57.006351,110.993523 
	C56.605145,110.986633 56.203941,110.979744 55.501862,110.967789 
	C54.211887,109.521889 53.222786,108.081055 52.205677,106.310654 
z"/>
<path fill="#5B35C7" opacity="1.000000" stroke="none" 
	d="
M230.733612,103.716568 
	C230.229477,105.245461 229.436920,106.480583 227.900513,107.858566 
	C220.264740,107.992424 220.264740,107.992424 216.131226,103.018280 
	C216.367523,102.551567 216.603821,102.084854 217.259125,101.355492 
	C218.033447,101.012619 218.388733,100.932404 218.744034,100.852188 
	C222.644424,101.709061 226.544830,102.565926 230.733612,103.716568 
z"/>
<path fill="#6239D5" opacity="1.000000" stroke="none" 
	d="
M215.996246,103.314896 
	C220.264740,107.992424 220.264740,107.992424 227.609131,108.006454 
	C227.781799,108.803123 227.502029,109.594757 227.086349,110.674629 
	C226.548660,110.986740 226.146912,111.010605 225.445618,111.041504 
	C222.106598,111.032433 219.038208,111.254837 216.040848,110.891388 
	C214.705444,110.729469 213.513046,109.388031 212.101837,108.236725 
	C213.252365,106.464851 214.556824,105.038185 215.996246,103.314896 
z"/>
<path fill="#5E3AC1" opacity="1.000000" stroke="none" 
	d="
M165.635925,77.976700 
	C166.416290,79.026222 166.782883,79.925873 167.281525,80.745163 
	C167.699234,81.431488 168.271164,82.023956 168.792175,82.679863 
	C162.843155,86.069817 159.547760,84.963341 157.008606,78.505974 
	C159.762741,78.026459 162.521057,77.909233 165.635925,77.976700 
z"/>
<path fill="#371D48" opacity="1.000000" stroke="none" 
	d="
M221.926697,47.586811 
	C218.596283,47.253086 215.130188,46.562725 211.662949,45.878044 
	C201.452942,43.861839 191.607559,46.304134 181.329559,48.146187 
	C194.456314,42.434525 208.076416,42.203251 221.926697,47.586811 
z"/>
<path fill="#3A2289" opacity="1.000000" stroke="none" 
	d="
M73.906464,89.694016 
	C69.756561,93.740616 65.227135,91.938690 60.332661,90.717865 
	C59.826668,89.919510 59.763554,89.495476 59.700439,89.071449 
	C59.774757,88.609871 59.849075,88.148293 60.407181,87.340683 
	C65.205528,87.332794 69.520081,87.670944 73.834633,88.009087 
	C73.881813,88.459366 73.929001,88.909645 73.906464,89.694016 
z"/>
<path fill="#412699" opacity="1.000000" stroke="none" 
	d="
M73.908371,87.621796 
	C69.520081,87.670944 65.205528,87.332794 60.430504,86.990387 
	C59.975525,85.923790 59.981022,84.861443 60.450462,83.398849 
	C64.325241,83.186699 67.735367,83.457214 71.147583,83.486877 
	C71.761543,83.492218 72.384132,82.505455 73.002739,81.976746 
	C73.413582,81.979576 73.824417,81.982414 74.543289,81.992920 
	C74.561584,83.745216 74.271851,85.489861 73.908371,87.621796 
z"/>
<path fill="#181253" opacity="1.000000" stroke="none" 
	d="
M163.935303,121.408798 
	C165.960052,121.715637 168.046219,122.402420 170.495575,123.120773 
	C170.858765,123.152351 170.913727,123.121056 171.105713,123.372330 
	C172.528290,124.071991 173.758865,124.520370 174.989441,124.968750 
	C175.774948,125.309357 176.560440,125.649956 177.992462,126.050606 
	C179.068771,126.179153 179.498566,126.247650 179.928360,126.316154 
	C185.561172,127.919037 191.193985,129.521927 196.919800,131.488098 
	C187.711807,131.542526 179.238342,127.932510 170.581436,125.114319 
	C168.270554,124.362030 166.185440,122.916183 163.935303,121.408798 
z"/>
<path fill="#1E1248" opacity="1.000000" stroke="none" 
	d="
M121.891335,112.592285 
	C118.995262,113.984795 115.914169,115.024918 112.458839,116.106674 
	C108.200111,115.767258 104.290710,115.547249 100.439468,114.951317 
	C97.644508,114.518829 94.926537,113.588699 92.086281,112.514526 
	C101.891830,115.158134 111.798233,113.971138 121.891335,112.592285 
z"/>
<path fill="#27195F" opacity="1.000000" stroke="none" 
	d="
M187.522552,117.129486 
	C182.509933,115.955421 177.933395,114.744522 173.175339,113.221619 
	C176.106827,113.596573 179.194046,114.675537 182.338608,114.882286 
	C187.577332,115.226715 192.852798,115.012321 198.559128,115.094849 
	C195.323181,115.801857 191.640915,116.447258 187.522552,117.129486 
z"/>
<path fill="#1E1248" opacity="1.000000" stroke="none" 
	d="
M49.340118,93.650528 
	C49.248207,94.871902 49.156296,96.093269 49.007713,97.680145 
	C48.433376,96.993652 47.452076,95.931274 47.475391,94.891418 
	C47.600456,89.314270 47.975758,83.742729 48.640182,77.973969 
	C48.936203,79.518433 48.856659,81.258194 48.669010,83.797180 
	C48.820644,87.614449 49.080379,90.632484 49.340118,93.650528 
z"/>
<path fill="#251651" opacity="1.000000" stroke="none" 
	d="
M221.945938,93.920158 
	C221.211487,94.966377 220.477051,96.012589 219.418518,97.140488 
	C221.317047,90.608292 222.399750,84.047615 218.154053,77.355820 
	C218.532944,76.982910 218.942856,76.988289 219.694519,77.293274 
	C220.355911,78.068024 220.675583,78.543175 220.995239,79.018333 
	C220.995239,79.018333 220.999939,78.997162 220.996780,79.336273 
	C221.315994,80.449677 221.638382,81.223953 221.969742,82.436661 
	C222.022964,84.919128 222.067200,86.963165 222.090698,89.353683 
	C222.084854,90.162308 222.099747,90.624451 222.064056,91.446945 
	C221.985275,92.536972 221.957062,93.266632 221.957977,93.983231 
	C221.987076,93.970169 221.945938,93.920158 221.945938,93.920158 
z"/>
<path fill="#27195F" opacity="1.000000" stroke="none" 
	d="
M172.878540,112.569962 
	C167.979477,113.304474 162.870361,113.653481 157.326904,113.979950 
	C161.792755,110.176910 167.395981,112.652145 172.878540,112.569962 
z"/>
<path fill="#251651" opacity="1.000000" stroke="none" 
	d="
M218.820404,100.454918 
	C218.388733,100.932404 218.033447,101.012619 217.404785,101.110695 
	C217.568954,100.096626 218.006485,99.064697 218.740448,97.834686 
	C218.990189,98.443626 218.943481,99.250633 218.820404,100.454918 
z"/>
<path fill="#7943CA" opacity="1.000000" stroke="none" 
	d="
M173.929016,86.693222 
	C173.397018,86.347488 172.875275,85.708618 172.621765,85.037163 
	C173.239761,85.469749 173.589523,85.934914 173.929016,86.693222 
z"/>
<path fill="#8C49D0" opacity="1.000000" stroke="none" 
	d="
M146.689484,64.084015 
	C146.410324,64.551872 145.828476,64.957466 145.091049,65.120453 
	C145.419235,64.592476 145.903015,64.307121 146.689484,64.084015 
z"/>
<path fill="#27195F" opacity="1.000000" stroke="none" 
	d="
M156.658844,113.938622 
	C156.279495,114.252686 155.553040,114.620239 154.493713,114.984146 
	C154.877808,114.651039 155.594772,114.321571 156.658844,113.938622 
z"/>
<path fill="#BF59E0" opacity="1.000000" stroke="none" 
	d="
M132.446655,121.146439 
	C132.610657,120.839432 133.075119,120.512817 133.844208,120.204102 
	C133.681610,120.523613 133.214355,120.825218 132.446655,121.146439 
z"/>
<path fill="#5F37CF" opacity="1.000000" stroke="none" 
	d="
M83.295807,69.020515 
	C83.232323,68.818985 83.423836,68.527687 83.863724,68.137100 
	C83.925011,68.335449 83.737907,68.633102 83.295807,69.020515 
z"/>
<path fill="#181253" opacity="1.000000" stroke="none" 
	d="
M73.715370,47.975395 
	C73.803253,48.209759 73.626778,48.511242 73.182419,48.879570 
	C73.093369,48.645115 73.272186,48.343811 73.715370,47.975395 
z"/>
<path fill="#371D48" opacity="1.000000" stroke="none" 
	d="
M180.714630,47.993317 
	C180.836380,48.250725 180.691956,48.578590 180.228699,48.944527 
	C180.089386,48.676319 180.268921,48.370045 180.714630,47.993317 
z"/>
<path fill="#371D48" opacity="1.000000" stroke="none" 
	d="
M222.926147,48.807114 
	C222.494507,48.899849 222.100998,48.709099 221.880630,48.225243 
	C222.357269,48.129303 222.660751,48.326466 222.926147,48.807114 
z"/>
<path fill="#251651" opacity="1.000000" stroke="none" 
	d="
M217.091248,75.275253 
	C217.449387,75.137154 217.679596,75.367523 217.886810,75.928528 
	C217.654633,75.963135 217.354446,75.757980 217.091248,75.275253 
z"/>
<path fill="#1E1248" opacity="1.000000" stroke="none" 
	d="
M91.059044,111.703323 
	C90.825546,111.910515 90.531090,111.774452 90.141792,111.346146 
	C90.324036,111.242424 90.641075,111.344482 91.059044,111.703323 
z"/>
<path fill="#1E1248" opacity="1.000000" stroke="none" 
	d="
M89.058014,110.701477 
	C88.821152,110.910713 88.525970,110.773865 88.137032,110.342850 
	C88.321739,110.237907 88.640549,110.340141 89.058014,110.701477 
z"/>
<path fill="#5F37CF" opacity="1.000000" stroke="none" 
	d="
M84.293304,68.017883 
	C84.234528,67.819664 84.431442,67.528595 84.876755,67.134705 
	C84.933105,67.329605 84.741051,67.627319 84.293304,68.017883 
z"/>
<path fill="#9A4DD3" opacity="1.000000" stroke="none" 
	d="
M141.996185,68.004883 
	C141.807220,68.000206 141.618256,67.995522 141.145782,67.962646 
	C141.062836,67.652664 141.263412,67.370888 141.708710,66.991463 
	C141.966339,67.077362 141.979218,67.260910 141.996048,67.722229 
	C142.000000,68.000000 141.996185,68.004883 141.996185,68.004883 
z"/>
<path fill="#FFFFFF" opacity="1.000000" stroke="none" 
	d="
M281.000000,95.997330 
	C281.000000,84.881691 281.000000,74.265266 281.000000,63.058922 
	C291.511932,63.468567 303.159668,59.811714 310.304352,70.170921 
	C317.493774,80.595039 317.365570,92.477203 310.986115,103.522011 
	C304.068298,115.498917 292.041748,111.143646 281.000000,112.131805 
	C281.000000,106.662262 281.000000,101.579407 281.000000,95.997330 
z"/>
<path fill="#FFFFFF" opacity="1.000000" stroke="none" 
	d="
M352.345215,82.167007 
	C359.562653,77.841545 368.250610,79.492287 369.887604,88.598312 
	C363.030243,88.598312 356.226318,88.598312 348.267578,88.598312 
	C349.690857,86.278809 350.871033,84.355515 352.345215,82.167007 
z"/>
<path fill="#FFFFFF" opacity="1.000000" stroke="none" 
	d="
M673.742920,95.427109 
	C676.849915,101.504868 677.275574,107.349480 674.273254,113.136658 
	C672.460938,116.629921 669.128723,118.202682 665.409546,117.619400 
	C661.419128,116.993584 658.588257,114.364174 658.067810,110.163017 
	C657.701294,107.204147 657.379761,104.047188 658.009277,101.192841 
	C660.068237,91.857384 665.222717,89.956108 673.742920,95.427109 
z"/>
<path fill="#FFFFFF" opacity="1.000000" stroke="none" 
	d="
M602.527222,110.928787 
	C598.462830,117.483406 595.198608,119.127106 590.556213,117.142906 
	C585.503479,114.983315 582.065308,108.430000 583.427734,103.207016 
	C584.112488,100.581940 584.422302,97.072449 586.222961,95.712929 
	C588.802795,93.765068 592.874573,92.092133 595.794739,92.714859 
	C599.680725,93.543556 602.812988,96.954338 602.966858,101.671822 
	C603.063965,104.646385 602.858765,107.630821 602.527222,110.928787 
z"/>
<path fill="#3828B0" opacity="1.000000" stroke="none" 
	d="
M174.924698,124.610428 
	C173.758865,124.520370 172.528290,124.071991 171.121582,123.344971 
	C172.250290,123.461586 173.555115,123.856842 174.924698,124.610428 
z"/>
<path fill="#3828B0" opacity="1.000000" stroke="none" 
	d="
M179.846619,126.034027 
	C179.498566,126.247650 179.068771,126.179153 178.315384,126.066650 
	C178.582809,125.932404 179.173843,125.842155 179.846619,126.034027 
z"/>
<path fill="#321E79" opacity="1.000000" stroke="none" 
	d="
M221.960770,81.998230 
	C221.638382,81.223953 221.315994,80.449677 220.986572,79.340515 
	C225.413452,79.480270 229.847351,79.954887 234.469437,80.245377 
	C234.835938,81.408821 235.014267,82.756393 234.731140,84.540924 
	C232.459900,84.984489 230.648926,84.951828 228.840591,85.006813 
	C226.058456,85.091408 223.200653,85.413887 221.960770,81.998230 
z"/>
<path fill="#321E79" opacity="1.000000" stroke="none" 
	d="
M220.978241,78.714272 
	C220.675583,78.543175 220.355911,78.068024 220.001984,77.294632 
	C220.298889,77.467667 220.630066,77.938934 220.978241,78.714272 
z"/>
<path fill="#B855DA" opacity="1.000000" stroke="none" 
	d="
M76.290237,125.709259 
	C74.129379,125.188942 72.261147,124.370499 70.196526,123.280090 
	C71.542427,122.338867 73.105026,121.712189 74.621201,120.988251 
	C76.102547,120.280945 77.536491,119.474403 79.018173,118.295868 
	C89.876778,121.786507 100.555870,120.002426 111.593887,116.998680 
	C113.356216,117.985229 114.607376,119.553459 116.124191,119.877266 
	C119.085220,120.509384 122.194794,120.445702 125.621674,120.837440 
	C120.680710,123.168755 115.872261,125.851807 109.425537,125.345558 
	C98.546776,124.491272 87.537346,125.301109 76.290237,125.709259 
z"/>
<path fill="#9E4ED4" opacity="1.000000" stroke="none" 
	d="
M57.155834,111.305542 
	C59.806114,110.081184 62.605877,109.168846 65.746262,108.108009 
	C67.324738,109.386803 68.562584,110.814095 69.934448,112.528847 
	C66.043312,117.800087 62.718060,117.487770 57.155834,111.305542 
z"/>
<path fill="#8B49D0" opacity="1.000000" stroke="none" 
	d="
M165.000610,100.000763 
	C165.093674,99.963554 165.186127,99.925591 165.138550,99.943237 
	C164.998550,99.998856 165.000000,100.000000 165.000610,100.000763 
z"/>
<path fill="#4629A0" opacity="1.000000" stroke="none" 
	d="
M222.114655,91.086594 
	C222.099747,90.624451 222.084854,90.162308 222.318802,89.181259 
	C226.987976,89.440636 231.408310,90.218925 235.828644,90.997215 
	C235.828644,90.997215 235.928955,90.991722 235.979492,90.990303 
	C235.681458,92.722572 235.332870,94.456261 234.977325,96.578583 
	C231.845474,96.977829 228.699921,97.199310 225.605698,96.896317 
	C224.349854,96.773346 223.205826,95.508522 221.978424,94.341705 
	C221.945938,93.920158 221.987076,93.970169 222.217438,93.821289 
	C222.336746,92.810471 222.225693,91.948532 222.114655,91.086594 
z"/>
<path fill="#492BA8" opacity="1.000000" stroke="none" 
	d="
M73.002129,81.577019 
	C72.384132,82.505455 71.761543,83.492218 71.147583,83.486877 
	C67.735367,83.457214 64.325241,83.186699 60.458832,83.000259 
	C60.005928,81.934853 60.008598,80.867790 60.017765,79.400612 
	C63.248737,76.314262 66.899620,76.353050 70.474556,77.837883 
	C71.587265,78.300026 72.173996,80.028519 73.002129,81.577019 
z"/>
<path fill="#9A4DD3" opacity="1.000000" stroke="none" 
	d="
M142.002380,67.998154 
	C142.126480,68.142059 142.248199,68.287804 142.369919,68.433548 
	C142.281845,68.384277 142.193771,68.335007 142.050934,68.145309 
	C141.996185,68.004883 142.000000,68.000000 142.002380,67.998154 
z"/>
<path fill="#7341C9" opacity="1.000000" stroke="none" 
	d="
M49.716991,93.878967 
	C49.080379,90.632484 48.820644,87.614449 48.678635,84.231384 
	C49.416550,85.634377 50.036743,87.402405 50.958912,90.031303 
	C53.350300,89.737953 56.142677,89.395416 59.317749,89.062164 
	C59.763554,89.495476 59.826668,89.919510 59.918724,90.664444 
	C59.988911,92.370049 60.030155,93.754753 60.072544,95.554024 
	C56.528915,96.518005 52.591820,99.171082 49.716991,93.878967 
z"/>
<path fill="#3A2289" opacity="1.000000" stroke="none" 
	d="
M235.874298,90.570587 
	C231.408310,90.218925 226.987976,89.440636 222.339539,88.834778 
	C222.067200,86.963165 222.022964,84.919128 221.969742,82.436661 
	C223.200653,85.413887 226.058456,85.091408 228.840591,85.006813 
	C230.648926,84.951828 232.459900,84.984489 234.753448,84.950790 
	C235.237183,84.923691 235.625961,84.940384 235.818726,84.967491 
	C235.980972,86.711052 235.950455,88.427513 235.874298,90.570587 
z"/>
<path fill="#5132B8" opacity="1.000000" stroke="none" 
	d="
M222.064056,91.446945 
	C222.225693,91.948532 222.336746,92.810471 222.188324,93.834351 
	C221.957062,93.266632 221.985275,92.536972 222.064056,91.446945 
z"/>
</svg>