<svg xmlns="http://www.w3.org/2000/svg" viewBox="0 0 250 100" width="250" height="100">
  <defs>
    <linearGradient id="gradient" x1="0%" y1="0%" x2="100%" y2="0%">
      <stop offset="0%" style="stop-color:#4B0082;stop-opacity:1" />
      <stop offset="50%" style="stop-color:#9d4edd;stop-opacity:1" />
      <stop offset="100%" style="stop-color:#C71585;stop-opacity:1" />
    </linearGradient>
  </defs>
  <path d="M 40 30 Q 10 30, 10 50 Q 10 70, 40 70 Q 60 70, 70 50 Q 80 30, 100 30 Q 110 30, 115 35 Q 120 40, 125 50 Q 130 40, 135 35 Q 140 30, 150 30 Q 180 30, 210 50 Q 240 70, 240 50 Q 240 30, 210 30 Q 190 30, 180 50 Q 170 70, 150 70 Q 140 70, 135 65 Q 130 60, 125 50 Q 120 60, 115 65 Q 110 70, 100 70 Q 70 70, 40 50 Q 10 30, 40 30 Z" fill="url(#gradient)" />
</svg>
