<svg xmlns="http://www.w3.org/2000/svg" viewBox="0 0 64 64" role="img" aria-label="Docker logo">
  <rect width="64" height="64" rx="14" fill="#0B1B2B"/>
  <rect x="12" y="30" width="12" height="10" fill="#1D8ED8" rx="2"/>
  <rect x="24" y="30" width="12" height="10" fill="#1D8ED8" rx="2"/>
  <rect x="36" y="30" width="12" height="10" fill="#1D8ED8" rx="2"/>
  <rect x="18" y="20" width="12" height="10" fill="#1D8ED8" rx="2"/>
  <rect x="30" y="20" width="12" height="10" fill="#1D8ED8" rx="2"/>
  <path fill="#1D8ED8" d="M10 40c0 8 6 14 22 14 16 0 20-4 22-10 4 0 8-2 8-6-3 2-6 2-8 1-2-4-6-7-12-7H10z"/>
  <circle cx="46" cy="18" r="6" fill="#26A9E0"/>
  <circle cx="46" cy="18" r="2" fill="#0B1B2B"/>
</svg>
